<?xml version="1.0"?>
<svg xmlns="http://www.w3.org/2000/svg" width="50" height="50" viewBox="0 0 50 50">
    <path d="M 15.5 2.5 C 12.375 2.5 9.80725 4.91275 9.53125 7.96875 C 9.51725 8.10775 9.504 8.234 9.5 8.375 C 9.499 8.416 9.5 8.459 9.5 8.5 C 9.5 8.514 9.5 8.51725 9.5 8.53125 C 9.5 8.69825 9.51625 8.86125 9.53125 9.03125 C 9.53525 9.07325 9.52625 9.11525 9.53125 9.15625 C 9.54925 9.31625 9.593 9.49525 9.625 9.65625 C 9.637 9.71525 9.64325 9.7545 9.65625 9.8125 C 9.69025 9.9615 9.73425 10.13025 9.78125 10.28125 C 9.78825 10.30425 9.77325 10.31975 9.78125 10.34375 C 9.91725 10.76775 10.10075 11.196 10.34375 11.625 C 10.45575 11.807 10.591 11.97625 10.75 12.15625 C 11.669 13.34125 13.04775 14.16625 14.59375 14.40625 C 14.62175 14.41125 14.62925 14.4335 14.65625 14.4375 C 14.72225 14.4465 14.81 14.46175 14.875 14.46875 C 14.888 14.46975 14.89225 14.46675 14.90625 14.46875 C 16.20825 14.62575 17.339 14.5555 18 15.6875 L 18.3125 16.3125 C 19.1125 17.7125 18.24375 18.851 17.34375 20.25 C 17.32375 20.281 17.3315 20.343 17.3125 20.375 C 16.4935 21.731 16 23.302 16 25 C 16 26.697 16.46525 28.27 17.28125 29.625 C 17.32325 29.708 17.36125 29.82625 17.40625 29.90625 C 18.25525 31.41125 19.74575 32.57425 21.46875 33.28125 C 21.62375 33.34725 21.7775 33.40975 21.9375 33.46875 C 22.0215 33.49775 22.1035 33.50325 22.1875 33.53125 C 22.6535 33.68325 23.127 33.799 23.625 33.875 C 23.768 33.898 23.9185 33.9205 24.0625 33.9375 C 24.0795 33.9395 24.108 33.96775 24.125 33.96875 C 26.202 34.20475 28.34975 33.777 30.09375 32.5 C 34.18575 29.503 34.89375 24.6625 33.09375 21.0625 C 33.07175 21.0165 33.05425 20.9835 33.03125 20.9375 C 31.54425 18.0145 28.504 16 25 16 C 24.978 16 24.9605 16 24.9375 16 C 24.9255 16 24.91925 15.999 24.90625 16 C 23.20625 16 21.5875 16.2125 20.6875 14.8125 L 20.40625 14.1875 C 19.87825 13.2815 20.293 12.341 20.75 11.375 C 20.898 11.107 21.02 10.8535 21.125 10.5625 C 21.14 10.5265 21.1745 10.4735 21.1875 10.4375 C 21.1945 10.4175 21.1805 10.395 21.1875 10.375 C 21.3835 9.785 21.5 9.156 21.5 8.5 C 21.5 5.191 18.809 2.5 15.5 2.5 z M 34.5 2.5 C 31.191 2.5 28.5 5.191 28.5 8.5 C 28.5 11.809 31.191 14.5 34.5 14.5 C 37.809 14.5 40.5 11.809 40.5 8.5 C 40.5 5.191 37.809 2.5 34.5 2.5 z M 6 19 C 2.691 19 0 21.691 0 25 C 0 28.309 2.691 31 6 31 C 9.309 31 12 28.309 12 25 C 12 21.691 9.309 19 6 19 z M 44 19 C 40.691 19 38 21.691 38 25 C 38 28.309 40.691 31 44 31 C 47.309 31 50 28.309 50 25 C 50 21.691 47.309 19 44 19 z M 15.5 35.5 C 12.191 35.5 9.5 38.191 9.5 41.5 C 9.5 44.809 12.191 47.5 15.5 47.5 C 18.809 47.5 21.5 44.809 21.5 41.5 C 21.5 38.191 18.809 35.5 15.5 35.5 z M 34.5 35.5 C 31.191 35.5 28.5 38.191 28.5 41.5 C 28.5 44.809 31.191 47.5 34.5 47.5 C 37.809 47.5 40.5 44.809 40.5 41.5 C 40.5 38.191 37.809 35.5 34.5 35.5 z"/>
</svg>
